<svg xmlns="http://www.w3.org/2000/svg" viewBox="0 0 99.36 132.53"><g id="Calque_2" data-name="Calque 2"><g id="Calque_1-2" data-name="Calque 1"><path d="M11.81,34.59l.5-.12a9.21,9.21,0,0,0,5.83-4.63A10.32,10.32,0,0,0,19,22.48,9.54,9.54,0,0,0,7,15.86,10.08,10.08,0,0,0,1.2,20.49a9.69,9.69,0,0,0,10.61,14.1Zm-6.64-12a5.22,5.22,0,0,1,3.11-2.42l.19-.05a5.08,5.08,0,0,1,6.16,3.64,4.49,4.49,0,0,1-.46,4,4.76,4.76,0,0,1-3.05,2.41l-.32.07a5.18,5.18,0,0,1-6.15-3.63,5,5,0,0,1,.52-4Z"/><path d="M18.79,15.05l.44-.1a7.51,7.51,0,0,0,4.6-3.69,7.32,7.32,0,0,0,.58-5.72,7.61,7.61,0,0,0-14-1.63A7.94,7.94,0,0,0,9.81,9.7a7.63,7.63,0,0,0,9,5.35Zm-4.37-9a3.57,3.57,0,0,1,2-1.5,3.32,3.32,0,0,1,3.79,2.15,3.29,3.29,0,0,1-.3,2.43A2.94,2.94,0,0,1,18,10.56l-.25.06a3,3,0,0,1-3.58-2.13,2.79,2.79,0,0,1,.23-2.42Z"/><path d="M82.66,59.81,81,60.19l-.58-2.5C85,54,88,48.73,86.57,42.62a16,16,0,0,0-18-12.14A24.27,24.27,0,0,0,41.3,16.94C32,19.1,23.91,26.41,21.76,34.72A19.16,19.16,0,0,0,9.35,57.23C11,64.46,17,68.47,23.77,70.19l9.72,42.09A7.78,7.78,0,0,0,29,121.19l1.21,5.24a8,8,0,0,0,9.38,5.91l53.75-12.41a7.88,7.88,0,0,0,5.78-9.41L98,105.28a7.84,7.84,0,0,0-8-6l-1-4.18,1.62-.38a7.75,7.75,0,0,0,5.75-9.27l-4.55-19.7a7.6,7.6,0,0,0-9.18-5.9ZM14.59,56a13.76,13.76,0,0,1,9-16.2l1.27-.49a2.27,2.27,0,0,0,1.61-1.82L27,36.15c1.68-6.36,8.21-12.21,15.57-13.91A18.74,18.74,0,0,1,63.69,32.86l.93,1.75a2.45,2.45,0,0,0,2.79,1.53l1.88-.37a10.47,10.47,0,0,1,12,8c.83,3.61-.67,6.78-3,9.3A9.5,9.5,0,0,1,74,56.22c-.31.08-.36.42-.67.49L68.6,57.8a2.71,2.71,0,0,0-2,3.23l1.83,7.91a1.46,1.46,0,0,1-1.09,1.83,1.51,1.51,0,0,1-1.84-1.15L63.65,61.7a2.65,2.65,0,0,0-3.22-2L31.24,66.43c-.68.15-1.2-.38-1.84-.3a13.47,13.47,0,0,1-5.48-1c-4.41-1.48-8.21-4.28-9.33-9.14Zm78.12,50.47,1.21,5.24a2.52,2.52,0,0,1-1.68,3L38.42,127.11a2.49,2.49,0,0,1-2.93-1.89L34.28,120a2.49,2.49,0,0,1,1.81-3l1.31-.3a2.38,2.38,0,0,0,1.67-1.3,2.24,2.24,0,0,0,.1-2.13l-.05-.19-9.69-42c1-.05,1.88.74,2.94.5l26.7-6.16,1.22,5.3a6.82,6.82,0,1,0,13.28-3.07l-1.22-5.3,2.12-.49c.5-.11.69-.68,1.19-.8l9.59,41.53a3.08,3.08,0,0,0,1.09,1.85,2.52,2.52,0,0,0,2.19.42l1.31-.31a2.48,2.48,0,0,1,2.87,1.9Zm-1.44-19.9a2.32,2.32,0,0,1-1.7,2.89l-1.68.39L82.23,65.36,83.85,65a2.39,2.39,0,0,1,2.81,1.91l4.55,19.71Z"/><path d="M39.92,82.94l4.57,19.77a2.68,2.68,0,0,0,5.23-1.21L45.16,81.73a2.7,2.7,0,0,0-3.22-2A2.67,2.67,0,0,0,39.92,82.94Z"/><path d="M51,80.38l4.56,19.77a2.69,2.69,0,0,0,3.21,1.95,2.65,2.65,0,0,0,2-3.16L56.26,79.17a2.71,2.71,0,0,0-3.23-2,2.65,2.65,0,0,0-2,3.22Z"/></g></g></svg>