<?xml version="1.0" encoding="UTF-8"?>
<svg xmlns="http://www.w3.org/2000/svg" viewBox="0 0 275.48 505.87">
    <g id="a"/>
    <g id="b">
        <g id="c">
            <path d="M265.45,169.58c-3.81-7.17-5.27-15.01-4.26-22.68l9.07-70.84c4.14-32.7-30.91-46.59-40.1-48.38-.79-.39-2.63-2.46-4.14-4.14-5.43-6.05-14.5-16.24-31.41-21.45-20.95-6.5-40.99,3.81-50.68,8.73-1.62,.84-2.86,1.51-3.41,1.73-.84,.11-4.03-.62-6.61-1.23-6.11-1.4-14.56-3.36-25.54-3.36-21.5,0-38.47,15.62-44.74,22.34-4.37,4.76-12.82,7.89-21.84,11.26-4.7,1.79-9.63,3.64-14.5,5.88C4.55,57.8,3.97,75.84,3.97,75.89v.17l9.78,70.84c1.01,7.67-.15,15.51-3.9,22.68C3.07,182.41,0,193.55,0,203.74c0,23.35,13.25,39.14,18.91,44.8,6.38,6.44,10.35,14.34,11.47,22.85l29.2,228.65c.34,2.8,2.77,5.82,5.57,5.82H210.52c2.8,0,5.15-3.02,5.54-5.82l29.18-228.2c1.12-8.51,5.04-16.63,11.43-23.07,5.66-5.66,18.82-21.56,18.82-44.91,0-10.2-3.25-21.45-10.03-34.28h0ZM31.93,57.3c4.54-2.13,9.24-3.7,13.83-5.43,10.19-3.81,19.88-7.34,26.04-14,5.32-5.66,19.43-18.76,36.57-18.76,9.69,0,17.41,1.79,23.02,3.14,4.98,1.12,8.57,1.96,11.76,1.18,1.46-.34,3.14-1.23,5.88-2.63,8.34-4.26,25.7-13.16,42.28-8.01,13.95,4.31,21.11,12.38,26.38,18.26,3.41,3.75,6.11,6.38,9.8,7.17,.34,.05,30.86,8.46,31.86,30.85H17.98c1.74-5.6,5.55-7.95,13.94-11.76h0Zm226.41,22.96l-7.11,56H24.37l-7.05-56h241.03Z"/>
        </g>
    </g>
</svg>